<svg xmlns="http://www.w3.org/2000/svg" xmlns:xlink="http://www.w3.org/1999/xlink" width="400" zoomAndPan="magnify" viewBox="0 0 300 74.999997" height="100" preserveAspectRatio="xMidYMid meet" version="1.0"><defs><g><g id="id1"/></g><clipPath id="id2"><path d="M 7.5 1.34375 L 74.25 1.34375 L 74.25 73.34375 L 7.5 73.34375 Z M 7.5 1.34375 " clip-rule="nonzero"/></clipPath></defs><g fill="rgb(0%, 29.019165%, 67.83905%)" fill-opacity="1"><g transform="translate(82.886358, 50.225943)"><g><path d="M 1.0625 0 L 1.0625 -30.53125 L 6.96875 -30.53125 L 6.96875 0 Z M 1.0625 0 "/></g></g></g><g fill="rgb(0%, 29.019165%, 67.83905%)" fill-opacity="1"><g transform="translate(96.782907, 50.225943)"><g><path d="M 4.15625 0 L 0.390625 -30.5625 L 6.21875 -30.5625 L 8.453125 -9.78125 L 10.453125 -30.5625 L 16.28125 -30.5625 L 12.515625 0 Z M 4.15625 0 "/></g></g></g><g fill="rgb(0%, 29.019165%, 67.83905%)" fill-opacity="1"><g transform="translate(119.280026, 50.225943)"><g><path d="M 5.046875 0 L 5.046875 -10.0625 L 0.171875 -30.53125 L 6.21875 -30.53125 L 7.921875 -20.1875 L 9.640625 -30.53125 L 15.671875 -30.53125 L 10.8125 -10.0625 L 10.8125 0 Z M 5.046875 0 "/></g></g></g><g fill="rgb(0%, 29.019165%, 67.83905%)" fill-opacity="1"><g transform="translate(140.959737, 50.225943)"><g/></g></g><g fill="rgb(0%, 29.019165%, 67.83905%)" fill-opacity="1"><g transform="translate(155.105056, 50.225943)"><g><path d="M 1.34375 0 L 1.34375 -30.53125 L 7.46875 -30.53125 L 7.46875 -5.1875 L 13.75 -5.1875 L 13.75 0 Z M 1.34375 0 "/></g></g></g><g fill="rgb(0%, 29.019165%, 67.83905%)" fill-opacity="1"><g transform="translate(175.043326, 50.225943)"><g><path d="M 1.34375 0 L 1.34375 -30.53125 L 13.578125 -30.53125 L 13.578125 -24.640625 L 7.578125 -24.640625 L 7.578125 -18.703125 L 13.328125 -18.703125 L 13.328125 -12.9375 L 7.578125 -12.9375 L 7.578125 -5.9375 L 13.96875 -5.9375 L 13.96875 0 Z M 1.34375 0 "/></g></g></g><g fill="rgb(0%, 29.019165%, 67.83905%)" fill-opacity="1"><g transform="translate(195.514685, 50.225943)"><g><path d="M 0.53125 0 L 3.484375 -30.53125 L 13.828125 -30.53125 L 16.75 0 L 10.953125 0 L 10.515625 -4.9375 L 6.828125 -4.9375 L 6.46875 0 Z M 7.28125 -9.8125 L 10.0625 -9.8125 L 8.703125 -25.34375 L 8.421875 -25.34375 Z M 7.28125 -9.8125 "/></g></g></g><g fill="rgb(0%, 29.019165%, 67.83905%)" fill-opacity="1"><g transform="translate(218.58044, 50.225943)"><g><path d="M 7.640625 0.28125 C 5.441406 0.28125 3.800781 -0.492188 2.71875 -2.046875 C 1.644531 -3.597656 1.109375 -5.945312 1.109375 -9.09375 L 1.109375 -22.25 C 1.109375 -25.070312 1.734375 -27.203125 2.984375 -28.640625 C 4.242188 -30.085938 6.117188 -30.8125 8.609375 -30.8125 C 10.617188 -30.8125 12.179688 -30.410156 13.296875 -29.609375 C 14.410156 -28.804688 15.179688 -27.632812 15.609375 -26.09375 C 16.035156 -24.550781 16.25 -22.570312 16.25 -20.15625 L 10.265625 -20.15625 L 10.265625 -22.890625 C 10.265625 -23.628906 10.164062 -24.195312 9.96875 -24.59375 C 9.769531 -25 9.410156 -25.203125 8.890625 -25.203125 C 7.722656 -25.203125 7.140625 -24.441406 7.140625 -22.921875 L 7.140625 -8.140625 C 7.140625 -7.210938 7.257812 -6.507812 7.5 -6.03125 C 7.738281 -5.5625 8.15625 -5.328125 8.75 -5.328125 C 9.34375 -5.328125 9.753906 -5.5625 9.984375 -6.03125 C 10.222656 -6.507812 10.34375 -7.210938 10.34375 -8.140625 L 10.34375 -12.515625 L 8.703125 -12.515625 L 8.703125 -17.765625 L 16.171875 -17.765625 L 16.171875 0 L 13.71875 0 L 12.6875 -2.5625 C 11.601562 -0.664062 9.921875 0.28125 7.640625 0.28125 Z M 7.640625 0.28125 "/></g></g></g><g fill="rgb(0%, 29.019165%, 67.83905%)" fill-opacity="1"><g transform="translate(241.646195, 50.225943)"><g><path d="M 8.421875 0.28125 C 5.910156 0.28125 4.046875 -0.425781 2.828125 -1.84375 C 1.609375 -3.269531 1 -5.378906 1 -8.171875 L 1 -30.53125 L 6.9375 -30.53125 L 6.9375 -8.421875 C 6.9375 -7.453125 7.03125 -6.691406 7.21875 -6.140625 C 7.40625 -5.597656 7.804688 -5.328125 8.421875 -5.328125 C 9.035156 -5.328125 9.4375 -5.59375 9.625 -6.125 C 9.820312 -6.664062 9.921875 -7.429688 9.921875 -8.421875 L 9.921875 -30.53125 L 15.859375 -30.53125 L 15.859375 -8.171875 C 15.859375 -5.378906 15.242188 -3.269531 14.015625 -1.84375 C 12.796875 -0.425781 10.929688 0.28125 8.421875 0.28125 Z M 8.421875 0.28125 "/></g></g></g><g fill="rgb(0%, 29.019165%, 67.83905%)" fill-opacity="1"><g transform="translate(264.321015, 50.225943)"><g><path d="M 1.34375 0 L 1.34375 -30.53125 L 13.578125 -30.53125 L 13.578125 -24.640625 L 7.578125 -24.640625 L 7.578125 -18.703125 L 13.328125 -18.703125 L 13.328125 -12.9375 L 7.578125 -12.9375 L 7.578125 -5.9375 L 13.96875 -5.9375 L 13.96875 0 Z M 1.34375 0 "/></g></g></g><g fill="rgb(3.138733%, 23.529053%, 2.349854%)" fill-opacity="1"><g transform="translate(90.868349, 66.931182)"><g><path d="M 0.640625 -4.414062 L 0.980469 -4.414062 C 0.980469 -4.414062 1.023438 -4.777344 1.203125 -5.417969 C 1.449219 -6.292969 2.015625 -7.25 2.742188 -7.25 C 2.976562 -7.25 3.136719 -7.121094 3.136719 -6.886719 L 3.136719 -0.597656 C 3.136719 -0.40625 3.070312 -0.339844 2.878906 -0.339844 L 2.027344 -0.339844 L 2.027344 0 L 5.820312 0 L 5.820312 -0.339844 L 4.96875 -0.339844 C 4.777344 -0.339844 4.714844 -0.40625 4.714844 -0.597656 L 4.714844 -6.886719 C 4.714844 -7.121094 4.871094 -7.25 5.109375 -7.25 C 5.832031 -7.25 6.398438 -6.292969 6.644531 -5.417969 C 6.824219 -4.777344 6.867188 -4.414062 6.867188 -4.414062 L 7.207031 -4.414062 L 7.121094 -7.59375 L 0.726562 -7.59375 Z M 0.640625 -4.414062 "/></g></g></g><g fill="rgb(3.138733%, 23.529053%, 2.349854%)" fill-opacity="1"><g transform="translate(102.533684, 66.931182)"><g><path d="M 0.726562 -7.25 L 1.40625 -7.25 C 1.597656 -7.25 1.664062 -7.1875 1.664062 -6.996094 L 1.664062 -2.527344 C 1.664062 -1.152344 2.441406 0.191406 4.46875 0.191406 C 6.078125 0.191406 7.015625 -0.886719 7.015625 -2.21875 L 7.015625 -6.292969 C 7.015625 -6.972656 7.570312 -7.25 8.125 -7.25 L 8.125 -7.59375 L 5.480469 -7.59375 L 5.480469 -7.25 C 6.035156 -7.25 6.589844 -6.972656 6.589844 -6.292969 L 6.589844 -2.109375 C 6.589844 -1.085938 5.832031 -0.234375 4.765625 -0.234375 C 3.730469 -0.234375 3.242188 -0.800781 3.242188 -2.109375 L 3.242188 -6.996094 C 3.242188 -7.1875 3.304688 -7.25 3.496094 -7.25 L 4.179688 -7.25 L 4.179688 -7.59375 L 0.726562 -7.59375 Z M 0.726562 -7.25 "/></g></g></g><g fill="rgb(3.138733%, 23.529053%, 2.349854%)" fill-opacity="1"><g transform="translate(115.030727, 66.931182)"><g><path d="M 0.640625 -4.414062 L 0.980469 -4.414062 C 0.980469 -4.414062 1.023438 -4.777344 1.203125 -5.417969 C 1.449219 -6.292969 2.015625 -7.25 2.742188 -7.25 C 2.976562 -7.25 3.136719 -7.121094 3.136719 -6.886719 L 3.136719 -0.597656 C 3.136719 -0.40625 3.070312 -0.339844 2.878906 -0.339844 L 2.027344 -0.339844 L 2.027344 0 L 5.820312 0 L 5.820312 -0.339844 L 4.96875 -0.339844 C 4.777344 -0.339844 4.714844 -0.40625 4.714844 -0.597656 L 4.714844 -6.886719 C 4.714844 -7.121094 4.871094 -7.25 5.109375 -7.25 C 5.832031 -7.25 6.398438 -6.292969 6.644531 -5.417969 C 6.824219 -4.777344 6.867188 -4.414062 6.867188 -4.414062 L 7.207031 -4.414062 L 7.121094 -7.59375 L 0.726562 -7.59375 Z M 0.640625 -4.414062 "/></g></g></g><g fill="rgb(3.138733%, 23.529053%, 2.349854%)" fill-opacity="1"><g transform="translate(126.696063, 66.931182)"><g><path d="M 0.746094 -3.796875 C 0.746094 -1.75 2.21875 0.191406 3.902344 0.191406 C 5.585938 0.191406 7.058594 -1.75 7.058594 -3.796875 C 7.058594 -5.84375 5.585938 -7.785156 3.902344 -7.785156 C 2.21875 -7.785156 0.746094 -5.84375 0.746094 -3.796875 Z M 2.558594 -2.195312 L 2.558594 -5.394531 C 2.558594 -6.929688 3.09375 -7.441406 3.902344 -7.441406 C 4.714844 -7.441406 5.246094 -6.929688 5.246094 -5.394531 L 5.246094 -2.195312 C 5.246094 -0.660156 4.714844 -0.148438 3.902344 -0.148438 C 3.09375 -0.148438 2.558594 -0.660156 2.558594 -2.195312 Z M 2.558594 -2.195312 "/></g></g></g><g fill="rgb(3.138733%, 23.529053%, 2.349854%)" fill-opacity="1"><g transform="translate(138.318748, 66.931182)"><g><path d="M 3.242188 -4.222656 L 3.242188 -6.996094 C 3.242188 -7.1875 3.304688 -7.25 3.496094 -7.25 L 3.957031 -7.25 C 4.753906 -7.25 4.96875 -6.695312 4.96875 -5.800781 C 4.96875 -4.90625 4.753906 -4.222656 3.957031 -4.222656 Z M 0.660156 0 L 4.4375 0 L 4.4375 -0.339844 L 3.496094 -0.339844 C 3.304688 -0.339844 3.242188 -0.40625 3.242188 -0.597656 L 3.242188 -3.882812 L 3.839844 -3.882812 C 4.585938 -3.882812 4.863281 -3.285156 4.863281 -2.664062 L 4.863281 -1.34375 C 4.863281 -0.257812 5.46875 0.257812 6.34375 0.257812 C 7.367188 0.257812 7.613281 -0.683594 7.613281 -1.917969 L 7.273438 -1.917969 C 7.273438 -1.164062 7.144531 -0.339844 6.738281 -0.339844 C 6.546875 -0.339844 6.441406 -0.46875 6.441406 -0.789062 L 6.441406 -1.972656 C 6.441406 -3.304688 5.714844 -3.765625 4.714844 -3.945312 L 4.714844 -4.019531 C 5.820312 -4.148438 6.675781 -4.691406 6.675781 -5.714844 C 6.675781 -6.886719 5.628906 -7.59375 4.117188 -7.59375 L 0.660156 -7.59375 L 0.660156 -7.25 L 1.40625 -7.25 C 1.597656 -7.25 1.664062 -7.1875 1.664062 -6.996094 L 1.664062 -0.597656 C 1.664062 -0.40625 1.597656 -0.339844 1.40625 -0.339844 L 0.660156 -0.339844 Z M 0.660156 0 "/></g></g></g><g fill="rgb(3.138733%, 23.529053%, 2.349854%)" fill-opacity="1"><g transform="translate(150.133362, 66.931182)"><g><path d="M 0.660156 0 L 4.242188 0 L 4.242188 -0.339844 L 3.496094 -0.339844 C 3.304688 -0.339844 3.242188 -0.40625 3.242188 -0.597656 L 3.242188 -6.996094 C 3.242188 -7.1875 3.304688 -7.25 3.496094 -7.25 L 4.242188 -7.25 L 4.242188 -7.59375 L 0.660156 -7.59375 L 0.660156 -7.25 L 1.40625 -7.25 C 1.597656 -7.25 1.664062 -7.1875 1.664062 -6.996094 L 1.664062 -0.597656 C 1.664062 -0.40625 1.597656 -0.339844 1.40625 -0.339844 L 0.660156 -0.339844 Z M 0.660156 0 "/></g></g></g><g fill="rgb(3.138733%, 23.529053%, 2.349854%)" fill-opacity="1"><g transform="translate(158.855716, 66.931182)"><g><path d="M 0.511719 0 L 3.625 0 L 3.625 -0.339844 C 2.859375 -0.339844 2.28125 -0.789062 2.28125 -1.449219 L 2.28125 -5.511719 L 2.324219 -5.511719 L 6.3125 0.191406 L 6.71875 0.191406 L 6.71875 -6.140625 C 6.71875 -6.804688 7.292969 -7.25 8.0625 -7.25 L 8.0625 -7.59375 L 4.949219 -7.59375 L 4.949219 -7.25 C 5.714844 -7.25 6.292969 -6.804688 6.292969 -6.140625 L 6.292969 -2.71875 L 2.878906 -7.59375 L 0.511719 -7.59375 L 0.511719 -7.25 L 0.703125 -7.25 C 1.046875 -7.25 1.171875 -7.175781 1.3125 -6.972656 L 1.738281 -6.332031 C 1.835938 -6.195312 1.855469 -6.164062 1.855469 -6.003906 L 1.855469 -1.449219 C 1.855469 -0.789062 1.28125 -0.339844 0.511719 -0.339844 Z M 0.511719 0 "/></g></g></g><g fill="rgb(3.138733%, 23.529053%, 2.349854%)" fill-opacity="1"><g transform="translate(171.032874, 66.931182)"><g><path d="M 0.746094 -3.796875 C 0.746094 -1.675781 1.855469 0.191406 3.730469 0.191406 C 4.542969 0.191406 5.128906 -0.480469 5.386719 -0.875 C 5.46875 -1.011719 5.566406 -1.097656 5.714844 -1.097656 C 5.855469 -1.097656 5.9375 -0.960938 5.972656 -0.832031 L 6.226562 0.136719 L 6.570312 0.136719 L 6.570312 -3.175781 C 6.570312 -3.371094 6.632812 -3.433594 6.824219 -3.433594 L 7.335938 -3.433594 L 7.335938 -3.773438 L 3.796875 -3.773438 L 3.796875 -3.433594 L 4.734375 -3.433594 C 4.925781 -3.433594 4.992188 -3.371094 4.992188 -3.175781 L 4.992188 -1.714844 C 4.992188 -0.90625 4.5 -0.148438 3.730469 -0.148438 C 3.050781 -0.148438 2.558594 -0.660156 2.558594 -2.195312 L 2.558594 -5.394531 C 2.558594 -6.929688 3.113281 -7.441406 3.925781 -7.441406 C 4.992188 -7.441406 5.757812 -6.398438 6.238281 -4.628906 L 6.570312 -4.628906 L 6.570312 -7.699219 L 6.214844 -7.699219 L 6.035156 -7.304688 C 5.980469 -7.1875 5.917969 -7.101562 5.800781 -7.101562 C 5.703125 -7.101562 5.585938 -7.164062 5.4375 -7.261719 C 5.011719 -7.550781 4.597656 -7.785156 3.925781 -7.785156 C 2.046875 -7.785156 0.746094 -5.929688 0.746094 -3.796875 Z M 0.746094 -3.796875 "/></g></g></g><g fill="rgb(3.138733%, 23.529053%, 2.349854%)" fill-opacity="1"><g transform="translate(182.740861, 66.931182)"><g/></g></g><g fill="rgb(3.138733%, 23.529053%, 2.349854%)" fill-opacity="1"><g transform="translate(189.757149, 66.931182)"><g><path d="M 0.746094 -3.796875 C 0.746094 -1.792969 1.769531 0.191406 3.839844 0.191406 C 4.90625 0.191406 5.660156 -0.332031 6.089844 -1.164062 C 6.34375 -1.664062 6.484375 -2.347656 6.527344 -2.933594 L 6.140625 -2.933594 C 6.089844 -2.429688 5.980469 -1.792969 5.726562 -1.3125 C 5.40625 -0.714844 4.839844 -0.148438 3.839844 -0.148438 C 3.242188 -0.148438 2.558594 -0.660156 2.558594 -2.195312 L 2.558594 -5.394531 C 2.558594 -6.929688 3.136719 -7.441406 3.730469 -7.441406 C 4.796875 -7.441406 5.652344 -6.25 5.972656 -4.425781 L 6.3125 -4.425781 L 6.3125 -7.699219 L 5.960938 -7.699219 L 5.769531 -7.304688 C 5.714844 -7.1875 5.660156 -7.101562 5.535156 -7.101562 C 5.449219 -7.101562 5.320312 -7.164062 5.171875 -7.261719 C 4.746094 -7.550781 4.308594 -7.785156 3.730469 -7.785156 C 1.855469 -7.785156 0.746094 -5.929688 0.746094 -3.796875 Z M 0.746094 -3.796875 "/></g></g></g><g fill="rgb(3.138733%, 23.529053%, 2.349854%)" fill-opacity="1"><g transform="translate(200.825361, 66.931182)"><g><path d="M 0.746094 -3.796875 C 0.746094 -1.75 2.21875 0.191406 3.902344 0.191406 C 5.585938 0.191406 7.058594 -1.75 7.058594 -3.796875 C 7.058594 -5.84375 5.585938 -7.785156 3.902344 -7.785156 C 2.21875 -7.785156 0.746094 -5.84375 0.746094 -3.796875 Z M 2.558594 -2.195312 L 2.558594 -5.394531 C 2.558594 -6.929688 3.09375 -7.441406 3.902344 -7.441406 C 4.714844 -7.441406 5.246094 -6.929688 5.246094 -5.394531 L 5.246094 -2.195312 C 5.246094 -0.660156 4.714844 -0.148438 3.902344 -0.148438 C 3.09375 -0.148438 2.558594 -0.660156 2.558594 -2.195312 Z M 2.558594 -2.195312 "/></g></g></g><g fill="rgb(3.138733%, 23.529053%, 2.349854%)" fill-opacity="1"><g transform="translate(212.448046, 66.931182)"><g><path d="M 0.511719 0 L 3.15625 0 L 3.15625 -0.339844 C 2.601562 -0.339844 2.046875 -0.617188 2.046875 -1.300781 L 2.046875 -5.726562 L 2.121094 -5.726562 L 4.296875 0.128906 L 4.714844 0.128906 L 6.570312 -6.664062 L 6.570312 -0.597656 C 6.570312 -0.40625 6.503906 -0.339844 6.3125 -0.339844 L 5.566406 -0.339844 L 5.566406 0 L 9.148438 0 L 9.148438 -0.339844 L 8.402344 -0.339844 C 8.210938 -0.339844 8.144531 -0.40625 8.144531 -0.597656 L 8.144531 -6.996094 C 8.144531 -7.1875 8.210938 -7.25 8.402344 -7.25 L 9.148438 -7.25 L 9.148438 -7.59375 L 6.441406 -7.59375 L 5.011719 -2.347656 L 3.058594 -7.59375 L 0.511719 -7.59375 L 0.511719 -7.25 L 1.363281 -7.25 C 1.558594 -7.25 1.621094 -7.1875 1.621094 -6.996094 L 1.621094 -1.300781 C 1.621094 -0.617188 1.066406 -0.339844 0.511719 -0.339844 Z M 0.511719 0 "/></g></g></g><g fill="rgb(3.138733%, 23.529053%, 2.349854%)" fill-opacity="1"><g transform="translate(225.968736, 66.931182)"><g><path d="M 0.660156 0 L 4.4375 0 L 4.4375 -0.339844 L 3.496094 -0.339844 C 3.304688 -0.339844 3.242188 -0.40625 3.242188 -0.597656 L 3.242188 -3.582031 L 4.457031 -3.582031 C 5.972656 -3.582031 7.015625 -4.4375 7.015625 -5.609375 C 7.015625 -6.78125 5.972656 -7.59375 4.457031 -7.59375 L 0.660156 -7.59375 L 0.660156 -7.25 L 1.40625 -7.25 C 1.597656 -7.25 1.664062 -7.1875 1.664062 -6.996094 L 1.664062 -0.597656 C 1.664062 -0.40625 1.597656 -0.339844 1.40625 -0.339844 L 0.660156 -0.339844 Z M 3.242188 -3.925781 L 3.242188 -6.996094 C 3.242188 -7.1875 3.304688 -7.25 3.496094 -7.25 L 4.296875 -7.25 C 5.097656 -7.25 5.308594 -6.546875 5.308594 -5.609375 C 5.308594 -4.671875 5.097656 -3.925781 4.296875 -3.925781 Z M 3.242188 -3.925781 "/></g></g></g><g fill="rgb(3.138733%, 23.529053%, 2.349854%)" fill-opacity="1"><g transform="translate(237.484789, 66.931182)"><g><path d="M 2.613281 -2.410156 L 3.613281 -5.34375 L 4.585938 -2.410156 Z M 0.46875 0 L 3.1875 0 L 3.1875 -0.339844 L 2.6875 -0.339844 C 2.335938 -0.339844 2.132812 -0.585938 2.132812 -0.820312 C 2.132812 -0.960938 2.175781 -1.171875 2.25 -1.363281 L 2.472656 -2.015625 L 4.714844 -2.015625 L 5.054688 -0.992188 C 5.085938 -0.894531 5.117188 -0.746094 5.117188 -0.683594 C 5.117188 -0.5 5 -0.339844 4.832031 -0.339844 L 4.0625 -0.339844 L 4.0625 0 L 7.804688 0 L 7.804688 -0.339844 L 7.378906 -0.339844 C 7.101562 -0.339844 6.878906 -0.511719 6.75 -0.886719 L 4.46875 -7.785156 L 4.019531 -7.785156 L 1.769531 -1.203125 C 1.621094 -0.777344 1.289062 -0.339844 0.832031 -0.339844 L 0.46875 -0.339844 Z M 0.46875 0 "/></g></g></g><g fill="rgb(3.138733%, 23.529053%, 2.349854%)" fill-opacity="1"><g transform="translate(249.555315, 66.931182)"><g><path d="M 0.511719 0 L 3.625 0 L 3.625 -0.339844 C 2.859375 -0.339844 2.28125 -0.789062 2.28125 -1.449219 L 2.28125 -5.511719 L 2.324219 -5.511719 L 6.3125 0.191406 L 6.71875 0.191406 L 6.71875 -6.140625 C 6.71875 -6.804688 7.292969 -7.25 8.0625 -7.25 L 8.0625 -7.59375 L 4.949219 -7.59375 L 4.949219 -7.25 C 5.714844 -7.25 6.292969 -6.804688 6.292969 -6.140625 L 6.292969 -2.71875 L 2.878906 -7.59375 L 0.511719 -7.59375 L 0.511719 -7.25 L 0.703125 -7.25 C 1.046875 -7.25 1.171875 -7.175781 1.3125 -6.972656 L 1.738281 -6.332031 C 1.835938 -6.195312 1.855469 -6.164062 1.855469 -6.003906 L 1.855469 -1.449219 C 1.855469 -0.789062 1.28125 -0.339844 0.511719 -0.339844 Z M 0.511719 0 "/></g></g></g><g fill="rgb(3.138733%, 23.529053%, 2.349854%)" fill-opacity="1"><g transform="translate(261.732473, 66.931182)"><g><path d="M 0.492188 -7.25 L 0.863281 -7.25 C 1.152344 -7.25 1.320312 -7.15625 1.492188 -6.78125 L 3.304688 -2.867188 L 3.304688 -0.597656 C 3.304688 -0.40625 3.242188 -0.339844 3.050781 -0.339844 L 2.367188 -0.339844 L 2.367188 0 L 5.820312 0 L 5.820312 -0.339844 L 5.140625 -0.339844 C 4.949219 -0.339844 4.882812 -0.40625 4.882812 -0.597656 L 4.882812 -2.964844 L 6.324219 -6.472656 C 6.460938 -6.835938 6.769531 -7.25 7.292969 -7.25 L 7.613281 -7.25 L 7.613281 -7.59375 L 4.96875 -7.59375 L 4.96875 -7.25 L 5.265625 -7.25 C 5.695312 -7.25 5.84375 -6.898438 5.84375 -6.601562 C 5.84375 -6.417969 5.769531 -6.164062 5.695312 -5.992188 L 4.714844 -3.550781 L 3.304688 -6.609375 C 3.261719 -6.695312 3.242188 -6.824219 3.242188 -6.910156 C 3.242188 -7.058594 3.328125 -7.25 3.539062 -7.25 L 3.839844 -7.25 L 3.839844 -7.59375 L 0.492188 -7.59375 Z M 0.492188 -7.25 "/></g></g></g><g clip-path="url(#id2)"><path fill="rgb(0%, 29.019165%, 67.83905%)" d="M 8.105469 11.5625 C 6.210938 28.355469 8.753906 42.832031 15.738281 54.996094 C 18.613281 59.496094 26.382812 66.746094 33.535156 70.542969 C 37.457031 72.628906 38.855469 73.257812 42.328125 69.871094 C 44.03125 68.207031 44.9375 66.214844 45.042969 63.894531 C 45.234375 59.707031 42.511719 60.230469 38.851562 60.070312 C 32.875 59.8125 26.378906 60.410156 21.730469 54.375 C 19.203125 51.089844 17.457031 47.664062 18.589844 43.433594 C 17.097656 43.40625 16.398438 43.671875 15.644531 44.039062 C 16.890625 41.355469 17.414062 38.585938 22.242188 36.71875 C 21.636719 36.277344 18.808594 35.25 17.332031 35.273438 C 21.179688 32.152344 26.609375 31.769531 30.347656 32.484375 C 30.453125 31.859375 26.082031 28.480469 24.253906 27.679688 C 30.128906 26.929688 41.574219 27.910156 47.65625 29.425781 C 42.9375 24.503906 40.941406 19.730469 41.667969 15.097656 C 45.027344 19.371094 49.851562 23.082031 56.140625 26.230469 C 58.089844 27.207031 59.441406 27.285156 60.332031 29.285156 L 61.273438 31.40625 C 62.070312 33.199219 62.363281 33.277344 64.152344 34.140625 L 67.246094 35.640625 C 68.78125 36.382812 68.460938 37.660156 68.261719 37.980469 C 67.660156 38.9375 67.183594 39.707031 66.828125 40.289062 C 66.214844 41.28125 65.667969 40.914062 65.457031 40.769531 C 62.921875 39.066406 59.449219 37.144531 55.019531 35.019531 C 55.5 38.859375 57.878906 41.121094 62.15625 41.800781 L 59.335938 46.480469 C 55.703125 40.554688 51.816406 38.625 47.675781 40.691406 C 47.976562 40.164062 49.058594 39.273438 49.542969 39.160156 C 48.386719 38.597656 46.546875 39.101562 45.390625 39.535156 C 46.109375 38.703125 46.921875 38.210938 47.832031 38.050781 C 36.671875 27.792969 15.820312 47.78125 41.273438 50.621094 C 44.328125 50.964844 47.539062 51.273438 50.40625 51.792969 C 58.160156 53.203125 59.664062 56.316406 56.710938 64 C 55.480469 67.199219 53.28125 70.28125 50.113281 73.25 C 68.757812 58.320312 76.605469 37.757812 73.648438 11.5625 C 57.378906 8.792969 46.457031 5.417969 40.878906 1.4375 C 35.296875 5.417969 24.375 8.792969 8.105469 11.5625 Z M 58.78125 32.339844 C 56.863281 32.234375 55.753906 31.277344 55.464844 29.46875 Z M 58.78125 32.339844 " fill-opacity="1" fill-rule="evenodd"/></g><path fill="rgb(0%, 29.019165%, 67.83905%)" d="M 35.6875 71.628906 C 38.125 72.714844 39.574219 72.558594 42.328125 69.871094 C 44.03125 68.207031 44.9375 66.214844 45.042969 63.894531 C 45.234375 59.707031 42.511719 60.230469 38.851562 60.070312 C 32.875 59.8125 26.378906 60.410156 21.730469 54.375 C 19.203125 51.089844 17.457031 47.664062 18.589844 43.433594 C 17.097656 43.40625 16.398438 43.671875 15.644531 44.039062 C 16.890625 41.355469 17.414062 38.585938 22.242188 36.71875 C 21.636719 36.277344 18.808594 35.25 17.332031 35.273438 C 19.503906 33.511719 22.175781 32.625 24.769531 32.3125 C 21.121094 31.867188 16.339844 32.449219 12.855469 35.273438 C 14.332031 35.25 17.160156 36.277344 17.765625 36.71875 C 12.9375 38.585938 12.414062 41.355469 11.167969 44.039062 C 11.921875 43.671875 12.621094 43.40625 14.113281 43.433594 C 12.980469 47.664062 14.726562 51.089844 17.253906 54.375 C 21.902344 60.410156 28.398438 59.8125 34.375 60.070312 C 38.035156 60.230469 40.757812 59.707031 40.566406 63.894531 C 40.460938 66.214844 39.554688 68.207031 37.851562 69.871094 C 37.035156 70.667969 36.332031 71.242188 35.6875 71.628906 Z M 25.78125 32.21875 C 27.421875 32.109375 28.992188 32.226562 30.347656 32.484375 C 30.453125 31.859375 26.082031 28.480469 24.253906 27.679688 C 26.117188 27.441406 28.542969 27.378906 31.183594 27.449219 C 27.011719 27.136719 23.015625 27.320312 20.628906 28.570312 C 22.257812 29.285156 25.230469 31.339844 25.78125 32.21875 Z M 42.238281 28.40625 C 44.269531 28.699219 46.132812 29.046875 47.65625 29.425781 C 44.558594 26.195312 42.632812 23.023438 41.882812 19.917969 C 40.085938 18.398438 38.523438 16.792969 37.1875 15.097656 C 36.511719 19.40625 38.199219 23.84375 42.238281 28.40625 Z M 63.007812 39.226562 C 60.820312 37.929688 58.160156 36.527344 55.019531 35.019531 C 55.144531 36.007812 55.394531 36.890625 55.765625 37.667969 C 57.808594 38.769531 59.546875 39.804688 60.980469 40.769531 C 61.191406 40.914062 61.738281 41.28125 62.351562 40.289062 C 62.535156 39.988281 62.753906 39.632812 63.007812 39.226562 Z M 56.878906 43.125 C 54.238281 40.195312 51.46875 39.257812 48.574219 40.304688 C 50.746094 41.132812 52.839844 43.191406 54.855469 46.480469 Z M 48.117188 40.148438 C 48.570312 39.699219 49.203125 39.238281 49.542969 39.160156 C 48.386719 38.597656 46.546875 39.101562 45.390625 39.535156 C 46.109375 38.703125 46.921875 38.210938 47.832031 38.050781 C 44.914062 35.371094 41.339844 34.757812 38.097656 35.363281 C 39.941406 35.726562 41.75 36.574219 43.355469 38.050781 C 42.445312 38.210938 41.632812 38.703125 40.914062 39.535156 C 42.070312 39.101562 43.910156 38.597656 45.0625 39.160156 C 44.582031 39.273438 43.5 40.164062 43.195312 40.691406 C 44.878906 39.851562 46.519531 39.671875 48.117188 40.148438 Z M 57.023438 31.894531 C 56.953125 31.746094 56.878906 31.585938 56.796875 31.40625 L 56.234375 30.132812 L 55.464844 29.46875 C 55.648438 30.625 56.171875 31.433594 57.023438 31.894531 Z M 57.023438 31.894531 " fill-opacity="1" fill-rule="evenodd"/><path fill="rgb(0.779724%, 17.649841%, 39.99939%)" d="M 36.15625 71.824219 C 38.320312 72.683594 39.753906 72.378906 42.328125 69.871094 C 44.03125 68.207031 44.9375 66.214844 45.042969 63.894531 C 45.234375 59.707031 42.511719 60.230469 38.851562 60.070312 C 32.875 59.8125 26.378906 60.410156 21.730469 54.375 C 19.203125 51.089844 17.457031 47.664062 18.589844 43.433594 C 17.097656 43.40625 16.398438 43.671875 15.644531 44.039062 C 16.890625 41.355469 17.414062 38.585938 22.242188 36.71875 C 21.636719 36.277344 18.808594 35.25 17.332031 35.273438 C 19.617188 33.417969 22.464844 32.53125 25.183594 32.265625 C 21.59375 31.914062 17.039062 32.554688 13.683594 35.273438 C 15.160156 35.25 17.988281 36.277344 18.597656 36.71875 C 13.765625 38.585938 13.242188 41.355469 11.996094 44.039062 C 12.75 43.671875 13.449219 43.40625 14.941406 43.433594 C 13.8125 47.664062 15.554688 51.089844 18.085938 54.375 C 22.730469 60.410156 29.226562 59.8125 35.203125 60.070312 C 38.867188 60.230469 41.585938 59.707031 41.394531 63.894531 C 41.289062 66.214844 40.382812 68.207031 38.679688 69.871094 C 37.710938 70.816406 36.902344 71.449219 36.15625 71.824219 Z M 26.589844 32.183594 C 27.933594 32.152344 29.21875 32.265625 30.347656 32.484375 C 30.453125 31.859375 26.082031 28.480469 24.253906 27.679688 C 26.46875 27.398438 29.472656 27.359375 32.6875 27.503906 C 28.277344 27.117188 23.976562 27.253906 21.457031 28.570312 C 23.066406 29.277344 25.980469 31.285156 26.589844 32.183594 Z M 43.199219 28.550781 C 44.855469 28.8125 46.375 29.105469 47.65625 29.425781 C 44.261719 25.886719 42.273438 22.421875 41.699219 19.03125 C 40.320312 17.777344 39.09375 16.464844 38.019531 15.097656 C 37.335938 19.453125 39.0625 23.9375 43.199219 28.550781 Z M 63.609375 39.589844 C 61.316406 38.195312 58.453125 36.667969 55.019531 35.019531 C 55.113281 35.773438 55.28125 36.464844 55.523438 37.097656 C 58.035156 38.414062 60.128906 39.640625 61.808594 40.769531 C 62.023438 40.914062 62.570312 41.28125 63.179688 40.289062 C 63.308594 40.082031 63.449219 39.847656 63.609375 39.589844 Z M 57.367188 43.691406 C 54.707031 40.476562 51.917969 39.300781 48.996094 40.164062 C 51.316406 40.878906 53.546875 42.984375 55.6875 46.480469 Z M 48.285156 39.992188 C 48.714844 39.597656 49.242188 39.230469 49.542969 39.160156 C 48.386719 38.597656 46.546875 39.101562 45.390625 39.535156 C 45.472656 39.4375 45.558594 39.34375 45.648438 39.257812 C 45.109375 39.523438 44.285156 40.238281 44.027344 40.691406 C 45.476562 39.96875 46.898438 39.734375 48.285156 39.992188 Z M 45.792969 39.113281 C 46.40625 38.535156 47.085938 38.179688 47.832031 38.050781 C 45.042969 35.484375 41.644531 34.8125 38.519531 35.289062 C 40.5 35.601562 42.457031 36.464844 44.183594 38.050781 C 43.273438 38.210938 42.460938 38.703125 41.742188 39.535156 C 42.863281 39.113281 44.632812 38.628906 45.792969 39.113281 Z M 58.035156 32.246094 C 57.90625 32.015625 57.777344 31.742188 57.628906 31.40625 L 57.582031 31.300781 L 55.464844 29.46875 C 55.714844 31.027344 56.570312 31.953125 58.035156 32.246094 Z M 58.035156 32.246094 " fill-opacity="1" fill-rule="evenodd"/></svg>